The Girl Who Kicked the Hornets Nest - Swedish

 
http://www.imdb.com/title/tt1343097/

Source  :

Luftslottet Som Sprängdes (2009) 720p multisub



Info    :

ID                               : 1
Format                           : AVC
Format/Info                      : Advanced Video Codec
Format profile                   : Baseline@L2.1
Format settings, CABAC           : No
Format settings, ReFrames        : 3 frames
Codec ID                         : avc1
Codec ID/Info                    : Advanced Video Coding
Duration                         : 2h 26mn
Bit rate mode                    : Variable
Bit rate                         : 400 Kbps
Width                            : 480 pixels
Height                           : 272 pixels
Display aspect ratio             : 16:9
Frame rate mode                  : Variable
Frame rate                       : 24.000 fps
Minimum frame rate               : 23.810 fps
Maximum frame rate               : 24.390 fps
Color space                      : YUV
Chroma subsampling               : 4:2:0
Bit depth                        : 8 bits
Scan type                        : Progressive
Bits/(Pixel*Frame)               : 0.128
Stream size                      : 420 MiB (75%)
Writing library                  : x264 core 79

ID                               : 2
Format                           : AAC
Format/Info                      : Advanced Audio Codec
Format version                   : Version 4
Format profile                   : LC
Format settings, SBR             : No
Codec ID                         : 40
Duration                         : 2h 26mn
Bit rate mode                    : Variable
Bit rate                         : 128 Kbps
Maximum bit rate                 : 216 Kbps
Channel(s)                       : 2 channels
Channel positions                : Front: L R
Sampling rate                    : 48.0 KHz
Stream size                      : 134 MiB (24%)
Language                         : Swedish

Screens :
 
http://img541.imageshack.us/img541/2392/vlcsnap00001o.png
 
http://img39.imageshack.us/img39/1282/vlcsnap00002t.png
 
http://img13.imageshack.us/img13/9428/vlcsnap00003kd.png
 
http://img816.imageshack.us/img816/7395/vlcsnap00004.png
 
http://img231.imageshack.us/img231/1056/vlcsnap00005mw.png
 
http://img696.imageshack.us/img696/2131/vlcsnap00006o.png
 
http://img693.imageshack.us/img693/934/vlcsnap00007q.png
 
http://img824.imageshack.us/img824/8104/vlcsnap00008.png

  




THIS MOVIE IS IN SWEDISH WITH ENGLISH SUBS! REASON? 
THE DUBBED VERSION IS A SHAME FOR THE ENTIRE MOVIE!!!!





PLEASE LET THE TORRENT SEED AND SHARE IT WITH ALL YOU KNOW!

Let me know what I can do to be your trusted source of Handheld videos.  
http://thepiratebay.org/user/on.off.on/ -OOO	